<?xml version="1.0" standalone="no"?>
<!DOCTYPE svg PUBLIC "-//W3C//DTD SVG 20010904//EN"
 "http://www.w3.org/TR/2001/REC-SVG-20010904/DTD/svg10.dtd">
<svg version="1.0" xmlns="http://www.w3.org/2000/svg"
 width="1473.000000pt" height="651.000000pt" viewBox="0 0 1473.000000 651.000000"
 preserveAspectRatio="xMidYMid meet">

<g transform="translate(0.000000,651.000000) scale(0.100000,-0.100000)"
fill="#000000" stroke="none">
<path d="M6448 6183 l-48 -26 0 -147 0 -147 -277 -166 -278 -166 -5 109 -5
109 -34 25 -34 26 -49 -27 -48 -26 0 -161 0 -161 -78 -43 c-42 -23 -117 -67
-167 -96 l-90 -53 -3 97 c-2 89 -5 98 -25 108 -12 7 -29 17 -37 23 -12 9 -26
5 -63 -17 l-47 -29 0 -1037 c0 -571 -3 -1038 -6 -1038 -11 0 -271 190 -452
331 -53 41 -180 139 -281 218 -100 78 -188 140 -195 138 -39 -15 -483 -222
-493 -230 -9 -6 -13 -37 -13 -88 0 -44 2 -79 3 -79 2 0 30 9 62 20 32 11 62
20 67 20 4 0 8 -69 8 -153 l0 -153 -70 -23 -70 -22 0 -80 c0 -76 1 -79 24 -79
12 0 53 -20 89 -43 36 -24 87 -55 112 -68 l45 -24 0 -1272 0 -1273 -125 0
-125 0 0 -85 0 -85 2385 0 2385 0 0 85 0 85 -272 2 -272 3 3 167 c1 92 0 242
-4 333 l-8 165 -118 37 -119 37 -2 395 c-2 218 -4 1139 -5 2046 l-2 1650 -32
23 c-39 27 -49 27 -93 1 l-36 -21 0 -84 0 -85 -67 48 c-38 26 -100 72 -140
103 -74 56 -121 90 -535 385 l-238 169 0 154 0 153 -27 24 c-35 30 -38 30 -95
-2z m-48 -688 c0 -142 -3 -175 -14 -175 -11 0 -123 82 -248 181 -20 16 -17 18
73 67 52 28 112 63 134 76 22 14 43 26 48 26 4 0 7 -79 7 -175z m245 97 c72
-49 93 -71 90 -90 -2 -9 -4 -81 -4 -159 -1 -108 -4 -143 -13 -143 -7 0 -44 22
-83 48 -82 57 -81 51 -70 259 5 96 10 131 19 126 6 -4 34 -22 61 -41z m-542
-258 c67 -48 128 -89 135 -91 21 -8 14 -17 -31 -38 -23 -11 -112 -57 -198
-102 -86 -46 -159 -83 -163 -83 -3 0 -6 73 -6 163 l0 163 63 37 c34 20 65 37
70 37 4 0 62 -39 130 -86z m912 -58 c-2 -23 -4 -87 -5 -142 -1 -56 -5 -106 -9
-112 -4 -6 -26 1 -57 20 l-51 31 -7 90 c-3 50 -6 128 -6 174 l0 83 69 -52 c67
-51 69 -53 66 -92z m-1345 -171 c0 -74 -2 -135 -4 -135 -2 0 -56 31 -119 68
l-116 69 32 16 c17 9 68 39 112 67 44 27 83 50 88 50 4 0 7 -61 7 -135z m1567
49 l53 -36 0 -160 c0 -88 -3 -158 -7 -156 -5 2 -32 19 -61 38 l-53 35 3 157
c2 87 5 158 8 158 3 0 28 -16 57 -36z m-842 -342 c-6 -6 -264 168 -264 178 0
7 96 56 189 96 l75 33 3 -151 c1 -83 0 -153 -3 -156z m248 253 l75 -50 4 -163
c2 -90 1 -165 0 -167 -4 -4 -91 46 -134 77 l-27 19 -3 169 c-2 94 0 169 3 168
4 -2 41 -25 82 -53z m862 -91 l55 -37 0 -163 c0 -90 -3 -164 -6 -164 -3 0 -26
16 -51 35 -25 19 -50 35 -54 35 -5 0 -9 74 -9 165 0 91 2 165 5 165 3 0 30
-16 60 -36z m-2051 -60 c42 -25 78 -49 81 -54 5 -8 -176 -110 -195 -110 -6 0
-10 49 -10 121 l0 121 25 -16 c13 -9 58 -37 99 -62z m619 -69 c123 -80 177
-119 177 -128 0 -5 -28 -21 -61 -35 -34 -15 -127 -59 -205 -97 l-144 -71 0
166 1 165 67 31 c37 17 70 29 75 27 4 -2 44 -28 90 -58z m936 -198 c-1 -87 -4
-157 -8 -155 -3 2 -29 18 -57 35 l-51 33 -6 112 c-4 62 -7 139 -7 170 l0 58
65 -48 66 -47 -2 -158z m-1339 -38 c0 -72 -4 -129 -8 -127 -5 2 -57 32 -116
68 -103 63 -106 66 -85 80 43 31 184 109 197 110 9 0 12 -33 12 -131z m1566
44 l54 -38 0 -157 0 -157 -57 40 -58 40 -5 150 c-3 83 -3 153 -1 155 7 7 11 5
67 -33z m-538 -147 l32 -17 0 -170 c0 -94 -3 -169 -8 -167 -4 2 -40 23 -80 47
l-72 43 0 174 0 174 48 -34 c26 -18 62 -41 80 -50z m-298 -71 l0 -145 -27 18
c-124 79 -233 155 -233 163 0 5 6 9 13 9 6 1 57 23 112 50 55 26 108 49 118
49 15 1 17 -12 17 -144z m-965 7 c119 -82 119 -71 8 -128 -54 -27 -101 -50
-105 -52 -5 -2 -8 53 -8 123 0 98 3 125 13 119 6 -5 48 -32 92 -62z m2062 28
l52 -35 3 -148 c2 -81 1 -147 0 -147 -2 0 -28 15 -57 33 l-54 32 -3 153 c-2
83 -1 151 2 150 3 -2 28 -19 57 -38z m-1399 -160 c130 -89 167 -118 160 -126
-5 -4 -156 -72 -283 -126 -27 -12 -69 -32 -92 -44 l-43 -22 0 169 0 170 63 29
c34 16 66 29 70 29 5 1 61 -35 125 -79z m853 33 l59 -38 0 -169 0 -168 -27 18
c-16 9 -43 27 -60 38 l-33 21 0 152 c0 83 -3 158 -6 167 -9 23 2 20 67 -21z
m-1281 -229 c0 -64 -3 -114 -8 -112 -17 7 -203 131 -200 133 12 11 186 95 196
95 9 0 12 -30 12 -116z m1565 41 l55 -35 0 -155 c0 -85 -3 -155 -6 -155 -3 0
-30 15 -60 33 l-53 32 -1 158 c0 86 2 157 5 157 3 0 30 -16 60 -35z m-835
-230 c0 -74 -3 -135 -7 -135 -3 0 -64 35 -134 77 l-128 77 82 37 c45 21 100
47 122 58 66 33 65 36 65 -114z m252 80 l77 -50 1 -168 c0 -93 -3 -167 -7
-165 -5 2 -40 20 -80 40 l-72 38 -3 180 c-2 99 -1 179 2 178 3 -2 40 -25 82
-53z m-1194 -54 l103 -66 -108 -52 c-59 -29 -111 -53 -115 -53 -5 0 -8 57 -8
126 0 97 3 124 13 118 6 -4 58 -37 115 -73z m2037 33 l55 -37 0 -158 0 -158
-55 32 -55 32 0 80 c0 44 -3 117 -7 163 -3 45 -3 82 1 82 3 0 31 -16 61 -36z
m-1510 -114 c4 -6 66 -49 138 -97 73 -47 136 -89 140 -93 12 -10 -64 -51 -148
-79 -38 -13 -116 -43 -172 -67 l-103 -43 0 167 1 167 57 27 c64 30 78 33 87
18z m967 -46 l59 -36 -7 -157 c-4 -86 -8 -158 -10 -160 -1 -1 -27 12 -56 30
l-53 33 0 163 c0 90 2 163 4 163 2 0 30 -16 63 -36z m-2655 -46 c54 -40 177
-133 273 -208 96 -75 194 -149 216 -165 44 -32 1194 -894 1206 -904 4 -3 -2
-31 -12 -61 -11 -30 -20 -66 -20 -80 -1 -59 -12 -56 -144 42 -70 51 -223 161
-340 243 -117 83 -255 182 -306 220 -52 39 -108 78 -125 89 -16 10 -79 55
-140 100 -60 46 -144 108 -185 138 -41 31 -122 93 -180 137 -58 45 -125 96
-150 113 -25 17 -69 51 -98 76 l-53 44 -58 -31 c-32 -17 -64 -31 -70 -31 -8 0
-11 48 -11 155 l0 156 43 19 c23 10 45 19 49 19 5 1 52 -31 105 -71z m1373
-152 l0 -115 -110 67 c-60 36 -110 69 -110 72 0 3 19 13 43 22 23 9 69 28 102
42 33 14 63 26 68 26 4 0 7 -51 7 -114z m1563 13 l57 -40 -1 -67 c-1 -37 -4
-104 -7 -149 l-7 -81 -53 31 -53 32 -2 158 c-1 86 1 157 4 157 3 0 31 -18 62
-41z m-1781 -171 c59 -40 108 -75 108 -78 0 -4 -115 -50 -217 -88 -10 -3 -13
24 -13 117 0 67 3 121 7 121 3 0 55 -33 115 -72z m952 -75 c-4 -76 -8 -140
-10 -142 -2 -2 -62 34 -135 79 l-131 83 28 15 c34 19 236 101 247 102 4 0 5
-62 1 -137z m248 80 l78 -48 0 -162 c0 -90 -2 -163 -5 -163 -2 0 -38 17 -79
37 l-75 37 -3 173 c-2 95 -1 173 2 173 2 0 39 -21 82 -47z m874 -18 c25 -20
25 -20 22 -167 l-3 -146 -52 31 -53 32 0 153 0 153 30 -18 c17 -9 42 -27 56
-38z m-1528 -144 c31 -21 84 -53 117 -72 91 -51 180 -118 164 -123 -57 -19
-250 -79 -322 -101 -48 -14 -94 -28 -102 -31 -13 -5 -15 17 -15 163 l0 169 48
16 c26 9 48 17 50 17 2 1 29 -16 60 -38z m-1658 -51 c62 -44 127 -93 146 -108
l34 -28 -7 -107 c-5 -97 -8 -106 -22 -94 -9 8 -47 31 -86 52 -38 21 -147 85
-242 141 -95 57 -177 104 -183 104 -18 0 -11 20 8 20 12 1 194 76 239 99 1 1
52 -35 113 -79z m2598 56 c76 -38 75 -35 67 -210 l-8 -155 -49 25 c-27 14 -51
30 -53 37 -5 14 -12 327 -7 327 1 0 24 -11 50 -24z m-1273 -364 c-2 -3 -66 41
-140 98 -74 57 -134 104 -133 106 2 1 64 22 138 47 l135 46 3 -146 c1 -80 0
-148 -3 -151z m1568 188 l57 -35 0 -100 c0 -55 -3 -123 -6 -151 l-6 -51 -57
31 -56 32 -3 158 c-1 87 1 156 5 154 5 -1 34 -19 66 -38z m-2324 -1466 l1
-1181 -77 -7 c-42 -3 -93 -6 -115 -6 l-38 0 0 1270 0 1269 114 -82 115 -82 0
-1181z m1749 1282 l72 -36 0 -165 c0 -91 -4 -165 -9 -165 -4 0 -40 14 -80 31
l-71 32 0 181 c0 100 4 176 8 170 4 -6 40 -28 80 -48z m870 3 c21 -13 22 -19
22 -156 l0 -143 -55 27 -55 27 0 149 0 149 33 -19 c17 -11 42 -26 55 -34z
m-1126 -111 c-1 -73 -4 -144 -5 -157 -2 -21 -14 -27 -117 -58 -63 -18 -122
-36 -130 -38 -20 -7 -303 207 -289 218 26 22 476 165 519 166 l25 1 -3 -132z
m-2077 -30 c186 -116 179 -105 119 -174 -27 -31 -96 -115 -154 -187 -58 -72
-111 -132 -117 -135 -10 -3 -13 60 -13 293 0 276 1 297 17 291 9 -4 76 -43
148 -88z m2621 -20 l54 -33 0 -152 c0 -171 6 -161 -75 -118 l-40 20 -3 158
c-1 86 0 157 4 157 3 0 30 -15 60 -32z m-1794 -119 c45 -33 167 -118 270 -187
104 -69 185 -129 180 -134 -4 -4 -37 -19 -72 -33 l-64 -25 -150 99 c-83 54
-172 111 -198 126 l-48 27 0 78 c0 43 -3 85 -6 94 -10 25 1 20 88 -45z m2080
-26 l57 -28 1 -152 0 -152 -47 21 c-87 38 -82 27 -81 191 1 81 4 147 7 147 3
1 32 -12 63 -27z m272 -149 l53 -27 -3 -131 c-2 -72 -6 -133 -7 -136 -2 -3
-27 6 -55 19 l-52 24 0 139 c0 76 2 138 5 138 2 0 29 -12 59 -26z m-780 -163
c3 -41 6 -119 6 -174 l0 -99 -27 7 c-16 3 -52 13 -80 21 l-53 15 0 188 0 187
74 -36 73 -35 7 -74z m-324 -34 l0 -174 -39 -11 c-56 -17 -63 -16 -156 30
l-85 42 1 81 c2 123 6 134 61 156 45 18 165 47 201 48 16 1 17 -14 17 -172z
m-1890 -214 c0 -208 -4 -373 -8 -368 -4 6 -72 69 -152 142 -80 72 -155 141
-167 155 l-22 24 169 212 c94 117 172 212 175 212 3 0 5 -170 5 -377z m623
214 l37 -29 0 -899 0 -899 -50 0 -50 0 0 936 c0 745 3 934 13 928 6 -4 29 -20
50 -37z m1812 2 l54 -30 3 -156 c2 -85 2 -156 0 -158 -2 -2 -29 7 -60 20 l-57
23 -3 166 c-1 91 0 166 3 166 3 0 30 -14 60 -31z m-963 -173 l148 -73 -88 -23
c-48 -12 -114 -31 -146 -41 -33 -10 -61 -19 -63 -19 -1 0 -3 52 -3 115 0 63 1
115 3 115 1 0 68 -33 149 -74z m1244 40 l51 -30 7 -89 c8 -125 8 -207 -3 -207
-4 0 -31 10 -60 21 l-51 22 0 143 c0 78 -3 150 -7 160 -7 19 -5 19 63 -20z
m-1556 -99 l0 -124 -127 -28 c-71 -15 -147 -33 -170 -40 l-43 -13 0 154 c0
100 4 154 10 154 11 0 73 -32 101 -51 12 -9 37 -2 115 29 54 23 102 41 107 41
4 1 7 -55 7 -122z m1834 -25 l50 -27 -3 -135 c-1 -74 -4 -137 -6 -138 -2 -2
-26 4 -54 13 l-51 17 0 149 c0 82 3 149 8 149 4 0 29 -13 56 -28z m-1097 -189
c-4 -54 -7 -134 -7 -179 l0 -80 -182 -33 c-101 -18 -229 -43 -285 -55 l-103
-22 0 162 0 163 68 20 c89 27 471 118 501 120 12 1 13 -16 8 -96z m296 40 l30
-15 -6 -165 c-3 -90 -7 -167 -10 -169 -3 -3 -37 5 -76 18 l-71 23 0 182 0 181
52 -20 c28 -10 65 -26 81 -35z m307 -280 c0 -182 4 -173 -73 -147 l-47 16 0
173 0 174 60 -27 59 -27 1 -162z m-2739 110 c58 -54 137 -127 177 -162 l72
-64 -55 -61 c-31 -34 -106 -123 -167 -198 -61 -76 -117 -138 -125 -138 -11 0
-13 62 -13 344 0 189 -3 351 -6 360 -13 33 16 13 117 -81z m1399 -101 l0 -159
-127 -26 c-71 -14 -147 -29 -170 -33 l-43 -7 0 156 c0 147 1 156 20 162 23 7
289 63 308 64 9 1 12 -37 12 -157z m1618 -106 c2 -113 -1 -156 -9 -156 -17 0
-93 22 -102 30 -9 8 -19 308 -12 321 3 4 31 -3 63 -16 l57 -23 3 -156z m232
59 l30 -16 0 -148 0 -149 -37 14 c-21 7 -46 13 -55 14 -16 0 -18 14 -18 160
l0 160 25 -10 c14 -5 39 -17 55 -25z m-1116 -332 c3 -97 4 -178 1 -181 -4 -5
-523 -72 -557 -72 -16 0 -18 15 -18 168 l0 169 178 28 c97 15 222 36 277 46
55 9 103 18 106 18 3 1 9 -78 13 -176z m296 123 l25 -11 3 -168 2 -167 -23 0
c-13 0 -49 5 -80 11 l-57 12 0 183 0 183 53 -15 c28 -9 63 -21 77 -28z m251
-78 l59 -23 0 -157 c0 -120 -3 -158 -12 -158 -7 0 -34 6 -61 13 l-47 12 -3
168 c-1 92 0 167 2 167 2 0 30 -10 62 -22z m-1272 -45 c1 -27 -1 -98 -5 -159
l-6 -111 -157 -18 c-86 -10 -160 -18 -166 -19 -6 -1 -12 58 -15 151 l-5 153
25 4 c14 3 79 13 145 22 66 9 122 18 124 20 2 2 16 4 31 4 25 0 27 -3 29 -47z
m-1169 -363 c0 -309 -2 -350 -15 -343 -8 5 -87 78 -175 162 l-159 152 56 67
c61 73 283 312 289 312 2 0 4 -158 4 -350z m2717 323 l53 -17 0 -154 c0 -130
-2 -153 -14 -149 -8 3 -33 11 -55 17 -27 7 -41 17 -42 28 -4 128 -5 292 -1
292 3 0 29 -8 59 -17z m333 -157 c0 -24 -3 -83 -6 -133 l-7 -89 -53 10 -54 9
0 143 0 143 60 -21 60 -20 0 -42z m208 -25 l42 -12 0 -130 0 -129 -27 6 c-77
19 -73 10 -73 154 0 72 3 129 8 127 4 -3 26 -10 50 -16z m-1098 -166 l55 -15
3 -185 4 -185 -81 0 -81 0 0 210 0 210 23 -10 c12 -5 47 -16 77 -25z m-260
-157 c0 -101 -3 -193 -6 -205 l-6 -23 -272 0 c-198 0 -275 3 -284 12 -15 15
-17 338 -2 338 13 0 348 39 425 49 33 5 79 9 103 10 l42 1 0 -182z m546 96
l55 -16 -3 -151 -3 -152 -57 -3 -57 -3 -3 171 c-2 93 1 170 5 170 5 0 33 -7
63 -16z m-1286 -159 l0 -165 -170 0 -170 0 0 149 0 148 138 15 c75 9 152 16
170 17 l32 1 0 -165z m1573 93 l47 -11 0 -124 0 -123 -65 0 -66 0 2 141 c1
126 3 140 17 134 10 -4 38 -11 65 -17z m256 -57 c53 -17 55 -19 57 -57 1 -21
0 -63 -3 -91 l-6 -53 -53 0 -54 0 0 110 c0 61 1 110 3 110 1 0 26 -9 56 -19z
m-3174 -199 c-2 -2 -40 0 -84 4 l-81 7 0 80 0 81 84 -84 c46 -47 82 -86 81
-88z m3458 119 c18 -7 24 -16 22 -38 -1 -15 -3 -40 -3 -55 -2 -26 -5 -28 -47
-28 l-45 0 0 71 c0 78 -1 78 73 50z"/>
<path d="M14674 4629 c-9 -15 11 -33 30 -26 9 4 13 13 10 22 -7 17 -30 20 -40
4z"/>
<path d="M12 3533 c2 -10 10 -18 18 -18 8 0 16 8 18 18 2 12 -3 17 -18 17 -15
0 -20 -5 -18 -17z"/>
</g>
</svg>
