<svg xmlns="http://www.w3.org/2000/svg" width="1473" height="651" viewBox="0 0 1473 651" version="1.1"><path d="M 644.750 32.566 L 640 35.038 639.997 49.769 L 639.993 64.500 631.247 69.764 C 626.436 72.659, 613.950 80.132, 603.500 86.371 L 584.500 97.714 584.218 86.952 L 583.936 76.189 580.495 73.564 L 577.054 70.939 572.052 73.474 L 567.050 76.009 566.775 92.177 L 566.500 108.346 549.750 118.090 L 533 127.834 532.988 118.167 L 532.975 108.500 529.356 106.154 L 525.736 103.809 521.118 106.348 L 516.500 108.888 516.245 212.944 C 516.105 270.175, 515.784 317, 515.532 317 C 514.891 317, 487.536 297.211, 477.122 289.213 C 472.380 285.572, 463.325 278.548, 457 273.605 C 423.230 247.213, 423.948 247.706, 421.111 248.960 C 419.675 249.594, 408.038 254.917, 395.250 260.789 L 372 271.464 372 279.732 C 372 284.279, 372.337 288, 372.750 287.999 C 373.163 287.999, 375.867 287.099, 378.761 285.999 C 381.654 284.900, 384.467 284, 385.011 284 C 385.620 284, 386 289.878, 386 299.303 L 386 314.606 379 316.861 L 372 319.115 372 327.058 C 372 334.999, 372 335, 374.671 335 C 376.140 335, 378.053 335.633, 378.921 336.408 C 381.223 338.460, 396.984 348, 398.073 348 C 398.637 348, 399 397.900, 399 475.500 C 399 545.625, 398.663 602.947, 398.250 602.882 C 397.837 602.816, 392.212 602.816, 385.750 602.882 L 374 603 374 611.500 L 374 620 612.500 620 L 851 620 851 611.547 L 851 603.093 824.582 602.797 C 810.052 602.633, 797.931 602.267, 797.646 601.981 C 797.362 601.696, 797.028 586.933, 796.904 569.174 L 796.678 536.885 794.089 535.605 C 792.665 534.901, 787.167 533.069, 781.872 531.533 L 772.244 528.741 771.544 402.620 C 771.159 333.254, 770.991 241.104, 771.172 197.841 L 771.500 119.183 767.382 116.696 L 763.264 114.209 759.382 116.383 L 755.500 118.557 755.210 126.778 C 755.050 131.300, 754.657 135, 754.337 135 C 753.624 135, 743.118 127.610, 733 119.991 C 728.875 116.885, 718.300 109.183, 709.500 102.876 C 700.700 96.569, 686.975 86.726, 679 81.003 C 671.025 75.280, 662.813 69.483, 660.750 68.121 L 657 65.645 657 50.274 L 657 34.904 654.250 32.484 C 650.867 29.506, 650.624 29.508, 644.750 32.566 M 628.500 90.106 C 623 93.360, 617.079 96.756, 615.342 97.652 L 612.183 99.283 614.842 101.495 C 624.364 109.415, 637.352 119, 638.564 119 C 639.757 119, 640 116.045, 640 101.500 C 640 91.875, 639.663 84.043, 639.250 84.095 C 638.837 84.148, 634 86.852, 628.500 90.106 M 656.655 98.284 C 656.300 104.453, 656.007 112.074, 656.005 115.220 L 656 120.939 663.455 125.970 C 667.555 128.736, 671.339 131, 671.864 131 C 672.423 131, 672.872 124.710, 672.947 115.843 C 673.018 107.507, 673.300 100.323, 673.575 99.878 C 673.977 99.228, 662.973 90.408, 658.401 87.716 C 657.643 87.270, 657.101 90.553, 656.655 98.284 M 590.271 112.792 L 584.041 116.500 584.021 132.750 C 584.009 141.688, 584.337 148.999, 584.750 148.998 C 585.163 148.998, 590.900 146.024, 597.500 142.390 C 604.100 138.757, 613.045 133.999, 617.377 131.817 L 625.253 127.850 615.377 121.301 C 609.945 117.699, 603.860 113.458, 601.856 111.876 C 599.852 110.294, 597.827 109.019, 597.356 109.042 C 596.885 109.066, 593.697 110.753, 590.271 112.792 M 688.348 120.656 C 688.707 126.516, 689.014 134.054, 689.031 137.406 L 689.063 143.500 694.281 146.680 L 699.500 149.861 700.141 144.180 C 700.494 141.056, 700.832 134.139, 700.891 128.808 L 701 119.117 695.076 114.558 C 691.818 112.051, 688.824 110, 688.424 110 C 688.024 110, 687.989 114.795, 688.348 120.656 M 558.476 131.633 C 554.089 134.182, 548.871 137.198, 546.880 138.336 L 543.260 140.406 550.380 144.488 C 554.296 146.734, 559.638 149.835, 562.250 151.381 L 567 154.190 567 140.595 C 567 133.118, 566.877 127, 566.726 127 C 566.575 127, 562.862 129.085, 558.476 131.633 M 717.146 147.762 L 716.793 163.515 720.766 165.749 C 722.952 166.977, 725.304 168.661, 725.992 169.491 C 726.681 170.321, 727.607 171, 728.050 171 C 728.492 171, 728.683 163.758, 728.472 154.907 L 728.089 138.813 723.298 135.407 C 720.663 133.533, 718.280 132.002, 718.003 132.004 C 717.726 132.006, 717.341 139.097, 717.146 147.762 M 656 156.150 L 656.500 173.303 664.250 178.159 L 672 183.015 672 166.591 L 672 150.166 664.032 144.583 C 659.650 141.512, 655.937 138.999, 655.782 138.998 C 655.627 138.997, 655.725 146.716, 656 156.150 M 624.792 145.803 C 618.352 148.936, 613.077 151.725, 613.068 152 C 613.051 152.582, 638.545 170, 639.415 170 C 639.737 170, 640 163.250, 640 155 C 640 141.361, 639.841 140.005, 638.250 140.053 C 637.288 140.082, 631.231 142.670, 624.792 145.803 M 744.028 166.224 L 744.057 182.500 749.429 185.750 C 752.383 187.537, 754.958 189, 755.150 189 C 755.343 189.001, 755.406 181.913, 755.291 173.250 L 755.082 157.500 752.291 155.197 C 750.756 153.931, 748.263 152.232, 746.750 151.422 L 744 149.949 744.028 166.224 M 533 164.393 C 533 170.777, 533.337 175.990, 533.750 175.978 C 534.163 175.966, 536.975 174.608, 540 172.960 C 543.025 171.311, 547.413 169.050, 549.750 167.935 C 552.087 166.819, 554 165.743, 554 165.543 C 554 165.030, 536.838 154.259, 534.735 153.452 C 533.150 152.844, 533 153.789, 533 164.393 M 589.750 164.084 L 584 166.966 584 182.983 C 584 191.792, 584.205 199, 584.454 199 C 584.704 199, 591.618 195.738, 599.818 191.750 C 608.018 187.762, 617.096 183.490, 619.991 182.256 C 624.656 180.268, 625.101 179.827, 623.903 178.384 C 621.753 175.792, 598.745 160.989, 597.042 161.101 C 596.194 161.157, 592.913 162.499, 589.750 164.084 M 688.311 163.025 C 688.675 164.386, 688.979 172.070, 688.986 180.101 L 689 194.701 694.066 197.851 C 696.853 199.583, 699.440 201, 699.816 200.999 C 700.192 200.998, 700.646 194.298, 700.825 186.109 C 701.075 174.657, 700.845 170.961, 699.825 170.101 C 699.096 169.485, 696.059 167.085, 693.075 164.766 C 688.053 160.864, 687.698 160.735, 688.311 163.025 M 559.391 180.134 C 556.151 181.858, 551.400 184.639, 548.833 186.314 L 544.166 189.359 553.833 195.266 C 559.150 198.515, 564.288 201.600, 565.250 202.122 C 566.876 203.003, 567 202.144, 567 190.035 C 567 182.866, 566.613 177, 566.141 177 C 565.668 177, 562.631 178.410, 559.391 180.134 M 717 197.323 L 717 212.717 722.485 216.358 C 725.501 218.361, 728.201 220, 728.485 220 C 728.768 220, 729 213.288, 729 205.084 L 729 190.168 725.250 187.229 C 723.188 185.612, 720.487 183.758, 719.250 183.110 L 717 181.930 717 197.323 M 1467.446 188.087 C 1466.505 189.610, 1468.549 191.387, 1470.416 190.671 C 1471.314 190.326, 1471.718 189.429, 1471.376 188.538 C 1470.694 186.759, 1468.427 186.499, 1467.446 188.087 M 657 209.511 L 657 226.810 661.750 229.537 C 664.362 231.036, 667.994 233.160, 669.821 234.257 L 673.141 236.250 672.876 219.375 L 672.610 202.500 664.805 197.356 L 657 192.211 657 209.511 M 626.614 198.064 C 621.177 200.779, 616.115 203, 615.364 203 C 612.424 203, 614.501 204.823, 627.010 213.223 L 640 221.947 640 207.473 C 640 194.332, 639.839 193.006, 638.250 193.064 C 637.288 193.099, 632.051 195.349, 626.614 198.064 M 533 212.522 C 533 219.385, 533.112 224.994, 533.250 224.987 C 533.388 224.980, 538.176 222.565, 543.890 219.620 L 554.280 214.265 547.890 209.887 C 544.376 207.479, 539.587 204.279, 537.250 202.776 L 533 200.044 533 212.522 M 744.020 215.750 L 744.039 230.500 749.520 233.703 L 755 236.905 755 222.547 L 755 208.188 749.998 204.594 C 747.246 202.617, 744.771 201, 744.498 201 C 744.224 201, 744.009 207.637, 744.020 215.750 M 590.250 215.209 L 584 218.320 584 234.660 C 584 243.647, 584.162 251, 584.360 251 C 584.558 251, 588.721 249.175, 593.610 246.944 C 606.328 241.141, 607.667 240.552, 616 237.092 C 624.095 233.731, 626.711 232.325, 625.971 231.731 C 618.299 225.578, 598.320 211.952, 597.111 212.049 C 596.775 212.076, 593.688 213.498, 590.250 215.209 M 688.393 214.582 C 688.727 215.452, 689 222.997, 689 231.348 L 689 246.533 694.406 249.766 C 697.380 251.545, 699.967 252.999, 700.156 252.999 C 700.850 252.996, 701.168 227.956, 700.523 224.134 C 699.953 220.761, 699.069 219.665, 694.443 216.594 C 688.404 212.584, 687.513 212.287, 688.393 214.582 M 555.221 232.826 L 545.942 237.549 555.721 244.025 C 561.099 247.586, 565.837 250.650, 566.250 250.833 C 566.663 251.017, 567 245.954, 567 239.583 C 567 230.956, 566.681 228.013, 565.750 228.051 C 565.063 228.079, 560.324 230.227, 555.221 232.826 M 717.028 247.715 L 717.057 263.500 722.429 266.750 C 725.383 268.538, 728.070 270, 728.400 270 C 728.730 270, 729 263.085, 729 254.633 L 729 239.266 725.250 236.793 C 723.188 235.434, 720.487 233.783, 719.250 233.125 L 717 231.930 717.028 247.715 M 625.500 250.878 C 613.614 256.566, 613.524 256.635, 616 258.140 C 617.375 258.976, 622.583 262.196, 627.574 265.294 C 641.222 273.768, 640 274.425, 640 258.607 C 640 248.352, 639.692 245.017, 638.750 245.068 C 638.063 245.106, 632.100 247.720, 625.500 250.878 M 657 262.957 L 657 280.978 665.024 285.012 L 673.049 289.047 672.774 272.312 L 672.500 255.577 669 253.336 C 667.075 252.103, 663.587 249.709, 661.250 248.015 L 657 244.937 657 262.957 M 533 260.394 L 533 272.950 535.640 271.947 C 537.092 271.395, 542.274 269.087, 547.156 266.819 L 556.032 262.695 547.766 257.281 C 543.220 254.303, 538.038 250.960, 536.250 249.852 L 533 247.837 533 260.394 M 743.393 250.582 C 743.727 251.452, 744.006 258.764, 744.014 266.832 L 744.029 281.500 749.015 284.250 C 751.757 285.762, 754.226 287, 754.501 287 C 754.775 287, 755 280.089, 755 271.642 L 755 256.283 749.515 252.642 C 743.403 248.583, 742.511 248.283, 743.393 250.582 M 589.781 265.834 L 584.061 268.500 584.031 285.195 L 584 301.890 589.750 299.345 C 592.913 297.945, 599.775 295.253, 605 293.362 C 617.007 289.018, 627.416 283.983, 626.333 283.043 C 624.962 281.854, 596.096 262.993, 595.786 263.084 C 595.629 263.130, 592.926 264.367, 589.781 265.834 M 688.799 265.532 C 688.634 265.695, 688.634 273.033, 688.797 281.840 L 689.094 297.852 694.085 301.055 C 696.830 302.816, 699.222 304.087, 699.400 303.879 C 699.578 303.670, 700.013 296.482, 700.368 287.904 L 701.013 272.308 695.055 268.772 C 691.779 266.827, 688.963 265.369, 688.799 265.532 M 414.250 268.122 L 410 270.076 410 285.538 C 410 296.309, 410.341 301, 411.123 301 C 411.741 301, 414.874 299.556, 418.085 297.790 L 423.924 294.580 426.212 296.673 C 429.527 299.705, 478.864 336.871, 496.079 349.304 C 501.261 353.045, 511.081 360.176, 517.902 365.149 C 524.723 370.122, 537.773 379.406, 546.902 385.782 C 556.031 392.157, 568.450 401.029, 574.500 405.497 C 580.550 409.965, 587.525 415.078, 590 416.858 L 594.500 420.095 595.347 416.797 C 595.812 414.984, 596.963 410.799, 597.904 407.498 L 599.615 401.495 589.558 393.914 C 570.336 379.426, 551.700 365.445, 539.019 356 C 520.662 342.328, 473.394 306.708, 460.452 296.794 C 433.265 275.968, 419.890 266.006, 419.222 266.084 C 418.825 266.131, 416.587 267.048, 414.250 268.122 M 556.500 281.025 C 551.550 283.190, 546.938 284.970, 546.250 284.980 C 543.325 285.026, 545.636 286.982, 556 293.233 L 567 299.867 567 288.433 C 567 282.145, 566.663 277.020, 566.250 277.045 C 565.837 277.069, 561.450 278.861, 556.500 281.025 M 716.796 298.803 L 717.092 314.631 722.546 317.764 L 728 320.897 728 315.102 C 728 311.915, 728.275 305.301, 728.610 300.404 L 729.220 291.500 724.077 287.706 C 721.248 285.619, 718.386 283.701, 717.717 283.443 C 716.785 283.084, 716.569 286.682, 716.796 298.803 M 533 308.887 L 533 320.971 542.750 317.404 C 548.112 315.442, 553.288 313.596, 554.250 313.302 C 555.212 313.008, 555.990 312.482, 555.979 312.133 C 555.957 311.486, 543.509 302.991, 536.750 299.011 L 533 296.802 533 308.887 M 631.499 301.460 C 627.099 303.258, 621.077 305.812, 618.115 307.135 L 612.731 309.540 617.115 312.260 C 619.527 313.756, 625.502 317.470, 630.394 320.513 C 635.286 323.556, 639.386 325.923, 639.505 325.773 C 640.167 324.941, 640.878 299.043, 640.249 298.654 C 639.836 298.398, 635.898 299.661, 631.499 301.460 M 656.795 315.933 L 657.090 332.869 664.498 336.934 C 668.572 339.170, 672.152 341, 672.453 341 C 672.754 341, 673 333.575, 673 324.500 C 673 315.425, 672.663 307.997, 672.250 307.993 C 671.837 307.990, 668.364 305.965, 664.530 303.493 C 660.697 301.022, 657.322 298.999, 657.030 298.999 C 656.739 298.998, 656.633 306.618, 656.795 315.933 M 744.020 315.240 L 744.039 330.500 749.520 333.703 L 755 336.905 755 322.094 L 755 307.283 749.500 303.631 L 744 299.980 744.020 315.240 M 589.250 317.852 L 584 319.438 584 336.194 L 584 352.950 586.750 351.902 C 588.263 351.325, 594.900 349.356, 601.500 347.526 C 617.389 343.121, 627.951 339.654, 627.978 338.835 C 628.013 337.775, 619.367 331.791, 608 325.009 C 602.225 321.563, 596.825 318.186, 596 317.504 C 594.799 316.513, 593.454 316.582, 589.250 317.852 M 411.500 322.012 C 405.450 324.676, 399.600 327.125, 398.500 327.454 C 396.734 327.982, 396.870 328.214, 399.670 329.444 C 401.413 330.210, 405.463 332.520, 408.670 334.579 C 417.329 340.137, 449.625 359, 450.484 359 C 450.602 359, 450.975 354.447, 451.314 348.882 C 452.021 337.280, 452.974 338.914, 440.160 329.749 C 436.123 326.862, 430.624 322.813, 427.940 320.750 C 425.255 318.688, 422.933 317.038, 422.779 317.085 C 422.626 317.131, 417.550 319.349, 411.500 322.012 M 689 333.523 L 689.500 350.049 694.750 353.045 L 700 356.040 700.111 342.020 C 700.172 334.309, 700.273 326.988, 700.336 325.750 C 700.422 324.039, 699.148 322.721, 695.019 320.250 C 692.032 318.462, 689.344 316.999, 689.044 316.998 C 688.745 316.997, 688.725 324.433, 689 333.523 M 553.500 330.635 C 548 332.541, 542.468 334.423, 541.207 334.817 C 539.166 335.455, 540.339 336.627, 551.894 345.496 C 559.034 350.975, 565.353 355.618, 565.937 355.812 C 566.655 356.052, 567 351.433, 567 341.583 C 567 328.329, 566.841 327.008, 565.250 327.085 C 564.288 327.132, 559 328.730, 553.500 330.635 M 716.354 338.750 C 716.651 341.913, 716.918 349.105, 716.947 354.733 L 717 364.966 722.099 367.550 C 724.904 368.972, 727.446 369.887, 727.749 369.585 C 728.720 368.614, 729.310 340, 728.359 340 C 727.861 340, 725.063 338.425, 722.140 336.500 C 719.217 334.575, 716.598 333, 716.320 333 C 716.042 333, 716.058 335.587, 716.354 338.750 M 468 475.413 C 468 555.114, 468.355 602.101, 468.960 602.475 C 469.488 602.801, 474.663 602.762, 480.460 602.387 L 491 601.705 490.974 483.603 L 490.948 365.500 485.747 362 C 482.886 360.075, 477.723 356.350, 474.273 353.722 L 468 348.944 468 475.413 M 744 364.710 L 744 379.583 749.500 382.281 L 755 384.978 755 370.730 C 755 358.226, 754.786 356.353, 753.250 355.433 C 752.288 354.856, 749.813 353.361, 747.750 352.110 L 744 349.837 744 364.710 M 657 368.396 L 657 385.813 664.430 388.907 C 668.517 390.608, 672.117 392, 672.430 392 C 672.744 392, 673 384.580, 673 375.511 L 673 359.022 665 355 L 657 350.978 657 368.396 M 634.500 353.709 C 625.522 355.848, 588.008 368.189, 586.135 369.619 C 585.547 370.067, 590.714 374.411, 602.715 383.559 C 611.592 390.325, 614.303 391.919, 615.715 391.203 C 616.697 390.705, 622.225 389.028, 628 387.475 C 633.775 385.922, 638.801 384.393, 639.169 384.076 C 639.537 383.759, 639.987 376.637, 640.169 368.249 C 640.532 351.512, 640.803 352.206, 634.500 353.709 M 416 389.469 C 416 415.123, 416.192 418.863, 417.485 418.367 C 418.302 418.054, 422.915 412.794, 427.735 406.680 C 432.556 400.566, 439.313 392.244, 442.751 388.187 C 446.189 384.131, 448.789 380.467, 448.528 380.046 C 447.941 379.095, 417.593 360, 416.670 360 C 416.301 360, 416 373.261, 416 389.469 M 688.358 375.131 C 688.672 379.184, 688.945 386.344, 688.965 391.042 L 689 399.583 694.500 402.281 L 700 404.978 700 389.648 L 700 374.318 694.760 371.409 C 691.878 369.809, 689.130 368.334, 688.653 368.131 C 688.177 367.928, 688.044 371.078, 688.358 375.131 M 506.330 378.418 C 506.699 379.378, 507 383.633, 507 387.874 L 507 395.584 513.250 399.249 C 516.688 401.264, 525.552 406.933, 532.949 411.846 L 546.398 420.779 551.949 418.706 C 562.247 414.858, 562.564 415.558, 545.279 403.956 C 536.712 398.205, 524.812 390.034, 518.834 385.799 C 505.009 376.002, 505.518 376.302, 506.330 378.418 M 716.800 398.007 L 717.100 413.017 722.017 415.509 C 724.721 416.879, 727.398 418, 727.967 418 C 728.630 418, 729 412.834, 729 403.575 L 729 389.150 723.322 386.075 C 720.200 384.384, 717.387 382.999, 717.072 382.999 C 716.758 382.998, 716.635 389.752, 716.800 398.007 M 744 411.812 L 744 425.624 749.500 428.198 L 755 430.771 754.999 417.136 L 754.998 403.500 750.102 400.750 C 747.409 399.238, 744.934 398, 744.603 398 C 744.271 398, 744 404.215, 744 411.812 M 631 404.499 C 627.425 405.220, 621.972 406.763, 618.883 407.927 C 613.370 410.005, 613.254 410.130, 612.633 414.662 C 612.285 417.201, 612 422.049, 612 425.434 L 612 431.589 620.848 435.926 C 629.696 440.262, 629.697 440.263, 634.848 438.942 L 640 437.622 640 420.311 C 640 407.079, 639.705 403.022, 638.750 403.094 C 638.063 403.146, 634.575 403.778, 631 404.499 M 657 421.330 L 657 439.686 664.218 441.792 C 668.188 442.950, 671.591 443.743, 671.779 443.554 C 672.775 442.558, 673.169 430.870, 672.544 420.868 L 671.834 409.494 667.667 407.653 C 665.375 406.640, 662.038 405.173, 660.250 404.392 L 657 402.973 657 421.330 M 432.683 425.750 L 416.092 446.500 422.796 453.004 C 426.483 456.581, 433.775 463.302, 439 467.938 C 444.225 472.575, 449.063 477.047, 449.750 477.875 C 450.755 479.086, 451 472.081, 451 442.191 C 451 421.736, 450.612 405, 450.137 405 C 449.662 405, 441.808 414.337, 432.683 425.750 M 507 509.406 L 507 603 512.005 603 L 517.011 603 516.755 512.818 L 516.500 422.637 511.750 419.225 L 507 415.813 507 509.406 M 688.166 433.130 L 688.552 449.500 694.004 452.168 C 697.002 453.636, 699.691 454.692, 699.978 454.516 C 700.265 454.339, 700.366 447.236, 700.202 438.731 L 699.905 423.266 694.713 420.383 C 691.857 418.797, 689.129 417.334, 688.650 417.130 C 688.169 416.925, 687.952 424.062, 688.166 433.130 M 583 441.524 C 583 450.455, 583.295 453.105, 584.250 452.753 C 587.802 451.442, 596.449 448.924, 604.128 446.964 L 612.755 444.762 598.628 437.658 C 590.857 433.751, 584.163 430.392, 583.750 430.194 C 583.337 429.995, 583 435.094, 583 441.524 M 717 445.863 L 717 461.632 722.550 463.932 C 725.603 465.198, 728.358 465.975, 728.673 465.660 C 728.988 465.345, 728.924 458.655, 728.531 450.794 L 727.815 436.500 722.408 433.297 L 717 430.095 717 445.863 M 556 435.048 C 546.634 438.907, 543 439.784, 543 438.184 C 543 437.230, 535.749 433, 534.114 433 C 533.344 433, 533 437.722, 533 448.290 L 533 463.581 544.750 460.757 C 551.212 459.203, 558.750 457.382, 561.500 456.709 L 566.500 455.485 566.781 443.243 C 566.935 436.509, 566.710 431.030, 566.281 431.067 C 565.851 431.104, 561.225 432.895, 556 435.048 M 744 457.906 L 744 472.812 748.678 474.406 C 751.251 475.283, 753.726 476, 754.178 476 C 754.630 476, 755 469.708, 755 462.017 L 755 448.034 750.033 445.517 C 747.302 444.133, 744.827 443, 744.533 443 C 744.240 443, 744 449.708, 744 457.906 M 628.500 457.598 C 601.935 463.891, 593.084 466.071, 588.250 467.512 L 583 469.077 583 485.366 L 583 501.654 592.750 499.466 C 598.112 498.264, 610.938 495.774, 621.250 493.933 L 640 490.587 640.179 475.293 C 640.277 466.882, 640.389 459.025, 640.429 457.833 C 640.468 456.642, 640.050 455.568, 639.500 455.448 C 638.950 455.328, 634 456.296, 628.500 457.598 M 657.022 473.642 L 657.045 491.500 664.110 493.829 C 667.997 495.109, 671.361 495.972, 671.588 495.746 C 671.814 495.519, 672.295 487.841, 672.656 478.683 L 673.313 462.033 667.906 459.579 C 664.933 458.230, 661.263 456.824, 659.750 456.454 L 657 455.783 657.022 473.642 M 416 503.871 C 416 543.589, 416.048 543.863, 421.665 536.250 C 426.783 529.314, 437.318 516.561, 444.639 508.437 L 451.906 500.375 439.876 489.437 C 433.260 483.422, 425.181 476.079, 421.924 473.121 L 416 467.741 416 503.871 M 689 484.961 L 689 501.923 694.182 503.461 C 697.031 504.308, 699.731 505, 700.182 505 C 700.632 505, 701 497.808, 701 489.017 L 701 473.034 696.033 470.517 C 693.302 469.133, 690.602 468, 690.033 468 C 689.363 468, 689 473.957, 689 484.961 M 551.714 474.963 C 544.131 476.524, 536.819 478.080, 535.464 478.420 L 533 479.038 533 494.519 C 533 506.233, 533.304 510.002, 534.250 510.008 C 534.938 510.013, 542.587 508.577, 551.250 506.817 L 567 503.617 567 487.808 C 567 479.114, 566.663 472.028, 566.250 472.062 C 565.837 472.096, 559.296 473.402, 551.714 474.963 M 717.226 494.705 L 717.500 511.281 722 512.625 C 729.395 514.835, 729 515.623, 729 498.664 L 729 483.327 722.976 480.728 L 716.952 478.129 717.226 494.705 M 744.225 504.616 L 744.500 520.140 749.775 521.925 L 755.051 523.710 754.775 508.727 L 754.500 493.745 749.225 491.418 L 743.950 489.091 744.225 504.616 M 637 508.778 C 628.505 509.991, 586.220 517.113, 584.764 517.575 C 583.173 518.080, 583 519.746, 583 534.567 C 583 546.672, 583.316 551, 584.199 551 C 585.688 551, 633.343 545.177, 637.614 544.474 L 640.727 543.961 640.259 526.230 C 640.002 516.479, 639.726 508.482, 639.646 508.460 C 639.566 508.438, 638.375 508.581, 637 508.778 M 657 527.431 L 657 545.724 662.667 546.862 C 673.250 548.987, 672.552 549.758, 672.871 535.593 C 673.025 528.769, 672.844 521.144, 672.470 518.648 L 671.789 514.110 664.395 511.624 L 657 509.137 657 527.431 M 688.795 535.896 L 689.089 552.794 692.795 553.465 C 694.833 553.835, 697.524 554.383, 698.776 554.683 L 701.052 555.230 700.776 539.424 L 700.500 523.618 694.536 521.309 C 691.256 520.039, 688.556 518.999, 688.536 518.999 C 688.516 518.998, 688.633 526.602, 688.795 535.896 M 549 523.567 C 541.025 524.832, 534.163 525.897, 533.750 525.934 C 533.337 525.970, 533 532.750, 533 541 C 533 554.610, 533.162 556.002, 534.750 556.023 C 535.712 556.036, 543.362 555.277, 551.750 554.337 L 567 552.627 567.053 546.063 C 567.082 542.454, 567.352 536.881, 567.651 533.681 C 568.381 525.898, 567.418 520.960, 565.205 521.133 C 564.267 521.206, 556.975 522.301, 549 523.567 M 440.477 537.661 C 434.965 543.622, 427.540 551.875, 423.977 556 C 420.415 560.125, 417.124 563.775, 416.665 564.111 C 416.206 564.448, 423.631 572.040, 433.165 580.983 L 450.500 597.243 450.773 579.622 C 450.923 569.930, 450.923 554.085, 450.773 544.411 L 450.500 526.822 440.477 537.661 M 716.326 529.408 C 716.697 530.374, 717 537.353, 717 544.917 L 717 558.671 722.500 560.202 L 728 561.733 728 546.485 L 728 531.237 723.629 530.137 C 721.225 529.531, 718.446 528.725, 717.455 528.344 C 716.028 527.797, 715.793 528.019, 716.326 529.408 M 744.222 551.676 L 744.500 565.351 749.750 566.533 L 755 567.714 755.009 559.607 C 755.013 555.148, 755.293 549.207, 755.630 546.405 L 756.242 541.309 751.183 539.655 C 748.401 538.745, 745.634 538, 745.034 538 C 744.286 538, 744.031 542.300, 744.222 551.676 M 771.222 559.224 L 771.500 572.282 776 573.626 C 778.475 574.365, 780.612 574.976, 780.750 574.985 C 780.888 574.993, 781 569.236, 781 562.191 L 781 549.382 775.972 547.774 L 770.943 546.166 771.222 559.224 M 614.500 564.491 C 604.600 565.742, 593.462 567.080, 589.750 567.463 L 583 568.159 583 584.380 C 583 595.662, 583.365 600.965, 584.200 601.800 C 585.074 602.674, 592.769 603, 612.561 603 L 639.721 603 640.352 597.750 C 640.699 594.862, 640.987 585.638, 640.991 577.250 L 641 562 636.750 562.107 C 634.413 562.166, 624.400 563.239, 614.500 564.491 M 657 582.542 L 657 603.084 664.750 602.792 C 672.484 602.501, 672.500 602.494, 672.438 599.750 C 672.403 598.237, 672.291 590.043, 672.188 581.540 L 672 566.080 665.395 564.040 C 661.762 562.918, 658.387 562, 657.895 562 C 657.397 562, 657 571.126, 657 582.542 M 689 585.983 L 689 603.100 694.750 602.800 L 700.500 602.500 700.834 587.433 L 701.167 572.367 696.834 571.120 C 694.450 570.434, 691.712 569.646, 690.750 569.369 C 689.132 568.903, 689 570.155, 689 585.983 M 547.250 571.789 L 533 573.314 533 588.157 L 533 603 550 603 L 567 603 567 586.500 L 567 570 564.250 570.132 C 562.737 570.204, 555.087 570.950, 547.250 571.789 M 716.721 578.392 C 716.450 580.101, 716.154 586.360, 716.065 592.299 L 715.902 603.098 722.201 602.799 L 728.500 602.500 728.500 590.637 L 728.500 578.775 722.858 577.029 L 717.216 575.283 716.721 578.392 M 744 592.061 L 744 603 749.538 603 L 755.075 603 754.788 593.843 L 754.500 584.686 749.250 582.904 L 744 581.122 744 592.061 M 416 594.331 L 416 602 420.250 602.155 C 422.587 602.240, 426.477 602.440, 428.894 602.599 C 431.311 602.758, 432.886 602.553, 432.394 602.144 C 431.902 601.735, 428.012 598.084, 423.750 594.031 L 416 586.662 416 594.331 M 771 595.643 L 771 602.500 775.500 602.500 L 780 602.500 780 596.875 C 780 591.540, 779.858 591.221, 777.250 590.695 C 775.737 590.390, 773.712 589.835, 772.750 589.463 C 771.188 588.859, 771 589.521, 771 595.643" stroke="none" fill="#154061" fill-rule="evenodd"/><path d="M -0 325.501 L -0 651.001 736.750 650.751 L 1473.500 650.500 1473.752 325.250 L 1474.003 0 737.002 0 L 0 0 -0 325.501 M 0.493 326 C 0.492 561.469, 0.631 602.820, 0.996 475.500 C 1.439 320.669, 1.679 299.500, 2.986 299.500 C 3.804 299.500, 4.624 298.713, 4.810 297.750 C 5.043 296.538, 4.510 296, 3.077 296 L 1.007 296 0.750 148.250 C 0.609 66.987, 0.493 146.975, 0.493 326 M 644.750 32.566 L 640 35.038 639.997 49.769 L 639.993 64.500 631.247 69.764 C 626.436 72.659, 613.950 80.132, 603.500 86.371 L 584.500 97.714 584.218 86.952 L 583.936 76.189 580.495 73.564 L 577.054 70.939 572.052 73.474 L 567.050 76.009 566.775 92.177 L 566.500 108.346 549.750 118.090 L 533 127.834 532.988 118.167 L 532.975 108.500 529.356 106.154 L 525.736 103.809 521.118 106.348 L 516.500 108.888 516.245 212.944 C 516.105 270.175, 515.784 317, 515.532 317 C 514.891 317, 487.536 297.211, 477.122 289.213 C 472.380 285.572, 463.325 278.548, 457 273.605 C 423.230 247.213, 423.948 247.706, 421.111 248.960 C 419.675 249.594, 408.038 254.917, 395.250 260.789 L 372 271.464 372 279.732 C 372 284.279, 372.337 288, 372.750 287.999 C 373.163 287.999, 375.867 287.099, 378.761 285.999 C 381.654 284.900, 384.467 284, 385.011 284 C 385.620 284, 386 289.878, 386 299.303 L 386 314.606 379 316.861 L 372 319.115 372 327.058 C 372 334.999, 372 335, 374.671 335 C 376.140 335, 378.053 335.633, 378.921 336.408 C 381.223 338.460, 396.984 348, 398.073 348 C 398.637 348, 399 397.900, 399 475.500 C 399 545.625, 398.663 602.947, 398.250 602.882 C 397.837 602.816, 392.212 602.816, 385.750 602.882 L 374 603 374 611.500 L 374 620 612.500 620 L 851 620 851 611.547 L 851 603.093 824.582 602.797 C 810.052 602.633, 797.931 602.267, 797.646 601.981 C 797.362 601.696, 797.028 586.933, 796.904 569.174 L 796.678 536.885 794.089 535.605 C 792.665 534.901, 787.167 533.069, 781.872 531.533 L 772.244 528.741 771.544 402.620 C 771.159 333.254, 770.991 241.104, 771.172 197.841 L 771.500 119.183 767.382 116.696 L 763.264 114.209 759.382 116.383 L 755.500 118.557 755.210 126.778 C 755.050 131.300, 754.657 135, 754.337 135 C 753.624 135, 743.118 127.610, 733 119.991 C 728.875 116.885, 718.300 109.183, 709.500 102.876 C 700.700 96.569, 686.975 86.726, 679 81.003 C 671.025 75.280, 662.813 69.483, 660.750 68.121 L 657 65.645 657 50.274 L 657 34.904 654.250 32.484 C 650.867 29.506, 650.624 29.508, 644.750 32.566 M 628.500 90.106 C 623 93.360, 617.079 96.756, 615.342 97.652 L 612.183 99.283 614.842 101.495 C 624.364 109.415, 637.352 119, 638.564 119 C 639.757 119, 640 116.045, 640 101.500 C 640 91.875, 639.663 84.043, 639.250 84.095 C 638.837 84.148, 634 86.852, 628.500 90.106 M 656.655 98.284 C 656.300 104.453, 656.007 112.074, 656.005 115.220 L 656 120.939 663.455 125.970 C 667.555 128.736, 671.339 131, 671.864 131 C 672.423 131, 672.872 124.710, 672.947 115.843 C 673.018 107.507, 673.300 100.323, 673.575 99.878 C 673.977 99.228, 662.973 90.408, 658.401 87.716 C 657.643 87.270, 657.101 90.553, 656.655 98.284 M 590.271 112.792 L 584.041 116.500 584.021 132.750 C 584.009 141.688, 584.337 148.999, 584.750 148.998 C 585.163 148.998, 590.900 146.024, 597.500 142.390 C 604.100 138.757, 613.045 133.999, 617.377 131.817 L 625.253 127.850 615.377 121.301 C 609.945 117.699, 603.860 113.458, 601.856 111.876 C 599.852 110.294, 597.827 109.019, 597.356 109.042 C 596.885 109.066, 593.697 110.753, 590.271 112.792 M 688.348 120.656 C 688.707 126.516, 689.014 134.054, 689.031 137.406 L 689.063 143.500 694.281 146.680 L 699.500 149.861 700.141 144.180 C 700.494 141.056, 700.832 134.139, 700.891 128.808 L 701 119.117 695.076 114.558 C 691.818 112.051, 688.824 110, 688.424 110 C 688.024 110, 687.989 114.795, 688.348 120.656 M 558.476 131.633 C 554.089 134.182, 548.871 137.198, 546.880 138.336 L 543.260 140.406 550.380 144.488 C 554.296 146.734, 559.638 149.835, 562.250 151.381 L 567 154.190 567 140.595 C 567 133.118, 566.877 127, 566.726 127 C 566.575 127, 562.862 129.085, 558.476 131.633 M 717.146 147.762 L 716.793 163.515 720.766 165.749 C 722.952 166.977, 725.304 168.661, 725.992 169.491 C 726.681 170.321, 727.607 171, 728.050 171 C 728.492 171, 728.683 163.758, 728.472 154.907 L 728.089 138.813 723.298 135.407 C 720.663 133.533, 718.280 132.002, 718.003 132.004 C 717.726 132.006, 717.341 139.097, 717.146 147.762 M 656 156.150 L 656.500 173.303 664.250 178.159 L 672 183.015 672 166.591 L 672 150.166 664.032 144.583 C 659.650 141.512, 655.937 138.999, 655.782 138.998 C 655.627 138.997, 655.725 146.716, 656 156.150 M 624.792 145.803 C 618.352 148.936, 613.077 151.725, 613.068 152 C 613.051 152.582, 638.545 170, 639.415 170 C 639.737 170, 640 163.250, 640 155 C 640 141.361, 639.841 140.005, 638.250 140.053 C 637.288 140.082, 631.231 142.670, 624.792 145.803 M 744.028 166.224 L 744.057 182.500 749.429 185.750 C 752.383 187.537, 754.958 189, 755.150 189 C 755.343 189.001, 755.406 181.913, 755.291 173.250 L 755.082 157.500 752.291 155.197 C 750.756 153.931, 748.263 152.232, 746.750 151.422 L 744 149.949 744.028 166.224 M 533 164.393 C 533 170.777, 533.337 175.990, 533.750 175.978 C 534.163 175.966, 536.975 174.608, 540 172.960 C 543.025 171.311, 547.413 169.050, 549.750 167.935 C 552.087 166.819, 554 165.743, 554 165.543 C 554 165.030, 536.838 154.259, 534.735 153.452 C 533.150 152.844, 533 153.789, 533 164.393 M 589.750 164.084 L 584 166.966 584 182.983 C 584 191.792, 584.205 199, 584.454 199 C 584.704 199, 591.618 195.738, 599.818 191.750 C 608.018 187.762, 617.096 183.490, 619.991 182.256 C 624.656 180.268, 625.101 179.827, 623.903 178.384 C 621.753 175.792, 598.745 160.989, 597.042 161.101 C 596.194 161.157, 592.913 162.499, 589.750 164.084 M 688.311 163.025 C 688.675 164.386, 688.979 172.070, 688.986 180.101 L 689 194.701 694.066 197.851 C 696.853 199.583, 699.440 201, 699.816 200.999 C 700.192 200.998, 700.646 194.298, 700.825 186.109 C 701.075 174.657, 700.845 170.961, 699.825 170.101 C 699.096 169.485, 696.059 167.085, 693.075 164.766 C 688.053 160.864, 687.698 160.735, 688.311 163.025 M 559.391 180.134 C 556.151 181.858, 551.400 184.639, 548.833 186.314 L 544.166 189.359 553.833 195.266 C 559.150 198.515, 564.288 201.600, 565.250 202.122 C 566.876 203.003, 567 202.144, 567 190.035 C 567 182.866, 566.613 177, 566.141 177 C 565.668 177, 562.631 178.410, 559.391 180.134 M 717 197.323 L 717 212.717 722.485 216.358 C 725.501 218.361, 728.201 220, 728.485 220 C 728.768 220, 729 213.288, 729 205.084 L 729 190.168 725.250 187.229 C 723.188 185.612, 720.487 183.758, 719.250 183.110 L 717 181.930 717 197.323 M 1467.446 188.087 C 1466.505 189.610, 1468.549 191.387, 1470.416 190.671 C 1471.314 190.326, 1471.718 189.429, 1471.376 188.538 C 1470.694 186.759, 1468.427 186.499, 1467.446 188.087 M 657 209.511 L 657 226.810 661.750 229.537 C 664.362 231.036, 667.994 233.160, 669.821 234.257 L 673.141 236.250 672.876 219.375 L 672.610 202.500 664.805 197.356 L 657 192.211 657 209.511 M 626.614 198.064 C 621.177 200.779, 616.115 203, 615.364 203 C 612.424 203, 614.501 204.823, 627.010 213.223 L 640 221.947 640 207.473 C 640 194.332, 639.839 193.006, 638.250 193.064 C 637.288 193.099, 632.051 195.349, 626.614 198.064 M 533 212.522 C 533 219.385, 533.112 224.994, 533.250 224.987 C 533.388 224.980, 538.176 222.565, 543.890 219.620 L 554.280 214.265 547.890 209.887 C 544.376 207.479, 539.587 204.279, 537.250 202.776 L 533 200.044 533 212.522 M 744.020 215.750 L 744.039 230.500 749.520 233.703 L 755 236.905 755 222.547 L 755 208.188 749.998 204.594 C 747.246 202.617, 744.771 201, 744.498 201 C 744.224 201, 744.009 207.637, 744.020 215.750 M 590.250 215.209 L 584 218.320 584 234.660 C 584 243.647, 584.162 251, 584.360 251 C 584.558 251, 588.721 249.175, 593.610 246.944 C 606.328 241.141, 607.667 240.552, 616 237.092 C 624.095 233.731, 626.711 232.325, 625.971 231.731 C 618.299 225.578, 598.320 211.952, 597.111 212.049 C 596.775 212.076, 593.688 213.498, 590.250 215.209 M 688.393 214.582 C 688.727 215.452, 689 222.997, 689 231.348 L 689 246.533 694.406 249.766 C 697.380 251.545, 699.967 252.999, 700.156 252.999 C 700.850 252.996, 701.168 227.956, 700.523 224.134 C 699.953 220.761, 699.069 219.665, 694.443 216.594 C 688.404 212.584, 687.513 212.287, 688.393 214.582 M 555.221 232.826 L 545.942 237.549 555.721 244.025 C 561.099 247.586, 565.837 250.650, 566.250 250.833 C 566.663 251.017, 567 245.954, 567 239.583 C 567 230.956, 566.681 228.013, 565.750 228.051 C 565.063 228.079, 560.324 230.227, 555.221 232.826 M 717.028 247.715 L 717.057 263.500 722.429 266.750 C 725.383 268.538, 728.070 270, 728.400 270 C 728.730 270, 729 263.085, 729 254.633 L 729 239.266 725.250 236.793 C 723.188 235.434, 720.487 233.783, 719.250 233.125 L 717 231.930 717.028 247.715 M 625.500 250.878 C 613.614 256.566, 613.524 256.635, 616 258.140 C 617.375 258.976, 622.583 262.196, 627.574 265.294 C 641.222 273.768, 640 274.425, 640 258.607 C 640 248.352, 639.692 245.017, 638.750 245.068 C 638.063 245.106, 632.100 247.720, 625.500 250.878 M 657 262.957 L 657 280.978 665.024 285.012 L 673.049 289.047 672.774 272.312 L 672.500 255.577 669 253.336 C 667.075 252.103, 663.587 249.709, 661.250 248.015 L 657 244.937 657 262.957 M 533 260.394 L 533 272.950 535.640 271.947 C 537.092 271.395, 542.274 269.087, 547.156 266.819 L 556.032 262.695 547.766 257.281 C 543.220 254.303, 538.038 250.960, 536.250 249.852 L 533 247.837 533 260.394 M 743.393 250.582 C 743.727 251.452, 744.006 258.764, 744.014 266.832 L 744.029 281.500 749.015 284.250 C 751.757 285.762, 754.226 287, 754.501 287 C 754.775 287, 755 280.089, 755 271.642 L 755 256.283 749.515 252.642 C 743.403 248.583, 742.511 248.283, 743.393 250.582 M 589.781 265.834 L 584.061 268.500 584.031 285.195 L 584 301.890 589.750 299.345 C 592.913 297.945, 599.775 295.253, 605 293.362 C 617.007 289.018, 627.416 283.983, 626.333 283.043 C 624.962 281.854, 596.096 262.993, 595.786 263.084 C 595.629 263.130, 592.926 264.367, 589.781 265.834 M 688.799 265.532 C 688.634 265.695, 688.634 273.033, 688.797 281.840 L 689.094 297.852 694.085 301.055 C 696.830 302.816, 699.222 304.087, 699.400 303.879 C 699.578 303.670, 700.013 296.482, 700.368 287.904 L 701.013 272.308 695.055 268.772 C 691.779 266.827, 688.963 265.369, 688.799 265.532 M 414.250 268.122 L 410 270.076 410 285.538 C 410 296.309, 410.341 301, 411.123 301 C 411.741 301, 414.874 299.556, 418.085 297.790 L 423.924 294.580 426.212 296.673 C 429.527 299.705, 478.864 336.871, 496.079 349.304 C 501.261 353.045, 511.081 360.176, 517.902 365.149 C 524.723 370.122, 537.773 379.406, 546.902 385.782 C 556.031 392.157, 568.450 401.029, 574.500 405.497 C 580.550 409.965, 587.525 415.078, 590 416.858 L 594.500 420.095 595.347 416.797 C 595.812 414.984, 596.963 410.799, 597.904 407.498 L 599.615 401.495 589.558 393.914 C 570.336 379.426, 551.700 365.445, 539.019 356 C 520.662 342.328, 473.394 306.708, 460.452 296.794 C 433.265 275.968, 419.890 266.006, 419.222 266.084 C 418.825 266.131, 416.587 267.048, 414.250 268.122 M 556.500 281.025 C 551.550 283.190, 546.938 284.970, 546.250 284.980 C 543.325 285.026, 545.636 286.982, 556 293.233 L 567 299.867 567 288.433 C 567 282.145, 566.663 277.020, 566.250 277.045 C 565.837 277.069, 561.450 278.861, 556.500 281.025 M 716.796 298.803 L 717.092 314.631 722.546 317.764 L 728 320.897 728 315.102 C 728 311.915, 728.275 305.301, 728.610 300.404 L 729.220 291.500 724.077 287.706 C 721.248 285.619, 718.386 283.701, 717.717 283.443 C 716.785 283.084, 716.569 286.682, 716.796 298.803 M 533 308.887 L 533 320.971 542.750 317.404 C 548.112 315.442, 553.288 313.596, 554.250 313.302 C 555.212 313.008, 555.990 312.482, 555.979 312.133 C 555.957 311.486, 543.509 302.991, 536.750 299.011 L 533 296.802 533 308.887 M 631.499 301.460 C 627.099 303.258, 621.077 305.812, 618.115 307.135 L 612.731 309.540 617.115 312.260 C 619.527 313.756, 625.502 317.470, 630.394 320.513 C 635.286 323.556, 639.386 325.923, 639.505 325.773 C 640.167 324.941, 640.878 299.043, 640.249 298.654 C 639.836 298.398, 635.898 299.661, 631.499 301.460 M 656.795 315.933 L 657.090 332.869 664.498 336.934 C 668.572 339.170, 672.152 341, 672.453 341 C 672.754 341, 673 333.575, 673 324.500 C 673 315.425, 672.663 307.997, 672.250 307.993 C 671.837 307.990, 668.364 305.965, 664.530 303.493 C 660.697 301.022, 657.322 298.999, 657.030 298.999 C 656.739 298.998, 656.633 306.618, 656.795 315.933 M 744.020 315.240 L 744.039 330.500 749.520 333.703 L 755 336.905 755 322.094 L 755 307.283 749.500 303.631 L 744 299.980 744.020 315.240 M 589.250 317.852 L 584 319.438 584 336.194 L 584 352.950 586.750 351.902 C 588.263 351.325, 594.900 349.356, 601.500 347.526 C 617.389 343.121, 627.951 339.654, 627.978 338.835 C 628.013 337.775, 619.367 331.791, 608 325.009 C 602.225 321.563, 596.825 318.186, 596 317.504 C 594.799 316.513, 593.454 316.582, 589.250 317.852 M 411.500 322.012 C 405.450 324.676, 399.600 327.125, 398.500 327.454 C 396.734 327.982, 396.870 328.214, 399.670 329.444 C 401.413 330.210, 405.463 332.520, 408.670 334.579 C 417.329 340.137, 449.625 359, 450.484 359 C 450.602 359, 450.975 354.447, 451.314 348.882 C 452.021 337.280, 452.974 338.914, 440.160 329.749 C 436.123 326.862, 430.624 322.813, 427.940 320.750 C 425.255 318.688, 422.933 317.038, 422.779 317.085 C 422.626 317.131, 417.550 319.349, 411.500 322.012 M 689 333.523 L 689.500 350.049 694.750 353.045 L 700 356.040 700.111 342.020 C 700.172 334.309, 700.273 326.988, 700.336 325.750 C 700.422 324.039, 699.148 322.721, 695.019 320.250 C 692.032 318.462, 689.344 316.999, 689.044 316.998 C 688.745 316.997, 688.725 324.433, 689 333.523 M 553.500 330.635 C 548 332.541, 542.468 334.423, 541.207 334.817 C 539.166 335.455, 540.339 336.627, 551.894 345.496 C 559.034 350.975, 565.353 355.618, 565.937 355.812 C 566.655 356.052, 567 351.433, 567 341.583 C 567 328.329, 566.841 327.008, 565.250 327.085 C 564.288 327.132, 559 328.730, 553.500 330.635 M 716.354 338.750 C 716.651 341.913, 716.918 349.105, 716.947 354.733 L 717 364.966 722.099 367.550 C 724.904 368.972, 727.446 369.887, 727.749 369.585 C 728.720 368.614, 729.310 340, 728.359 340 C 727.861 340, 725.063 338.425, 722.140 336.500 C 719.217 334.575, 716.598 333, 716.320 333 C 716.042 333, 716.058 335.587, 716.354 338.750 M 468 475.413 C 468 555.114, 468.355 602.101, 468.960 602.475 C 469.488 602.801, 474.663 602.762, 480.460 602.387 L 491 601.705 490.974 483.603 L 490.948 365.500 485.747 362 C 482.886 360.075, 477.723 356.350, 474.273 353.722 L 468 348.944 468 475.413 M 744 364.710 L 744 379.583 749.500 382.281 L 755 384.978 755 370.730 C 755 358.226, 754.786 356.353, 753.250 355.433 C 752.288 354.856, 749.813 353.361, 747.750 352.110 L 744 349.837 744 364.710 M 657 368.396 L 657 385.813 664.430 388.907 C 668.517 390.608, 672.117 392, 672.430 392 C 672.744 392, 673 384.580, 673 375.511 L 673 359.022 665 355 L 657 350.978 657 368.396 M 634.500 353.709 C 625.522 355.848, 588.008 368.189, 586.135 369.619 C 585.547 370.067, 590.714 374.411, 602.715 383.559 C 611.592 390.325, 614.303 391.919, 615.715 391.203 C 616.697 390.705, 622.225 389.028, 628 387.475 C 633.775 385.922, 638.801 384.393, 639.169 384.076 C 639.537 383.759, 639.987 376.637, 640.169 368.249 C 640.532 351.512, 640.803 352.206, 634.500 353.709 M 416 389.469 C 416 415.123, 416.192 418.863, 417.485 418.367 C 418.302 418.054, 422.915 412.794, 427.735 406.680 C 432.556 400.566, 439.313 392.244, 442.751 388.187 C 446.189 384.131, 448.789 380.467, 448.528 380.046 C 447.941 379.095, 417.593 360, 416.670 360 C 416.301 360, 416 373.261, 416 389.469 M 688.358 375.131 C 688.672 379.184, 688.945 386.344, 688.965 391.042 L 689 399.583 694.500 402.281 L 700 404.978 700 389.648 L 700 374.318 694.760 371.409 C 691.878 369.809, 689.130 368.334, 688.653 368.131 C 688.177 367.928, 688.044 371.078, 688.358 375.131 M 506.330 378.418 C 506.699 379.378, 507 383.633, 507 387.874 L 507 395.584 513.250 399.249 C 516.688 401.264, 525.552 406.933, 532.949 411.846 L 546.398 420.779 551.949 418.706 C 562.247 414.858, 562.564 415.558, 545.279 403.956 C 536.712 398.205, 524.812 390.034, 518.834 385.799 C 505.009 376.002, 505.518 376.302, 506.330 378.418 M 716.800 398.007 L 717.100 413.017 722.017 415.509 C 724.721 416.879, 727.398 418, 727.967 418 C 728.630 418, 729 412.834, 729 403.575 L 729 389.150 723.322 386.075 C 720.200 384.384, 717.387 382.999, 717.072 382.999 C 716.758 382.998, 716.635 389.752, 716.800 398.007 M 744 411.812 L 744 425.624 749.500 428.198 L 755 430.771 754.999 417.136 L 754.998 403.500 750.102 400.750 C 747.409 399.238, 744.934 398, 744.603 398 C 744.271 398, 744 404.215, 744 411.812 M 631 404.499 C 627.425 405.220, 621.972 406.763, 618.883 407.927 C 613.370 410.005, 613.254 410.130, 612.633 414.662 C 612.285 417.201, 612 422.049, 612 425.434 L 612 431.589 620.848 435.926 C 629.696 440.262, 629.697 440.263, 634.848 438.942 L 640 437.622 640 420.311 C 640 407.079, 639.705 403.022, 638.750 403.094 C 638.063 403.146, 634.575 403.778, 631 404.499 M 657 421.330 L 657 439.686 664.218 441.792 C 668.188 442.950, 671.591 443.743, 671.779 443.554 C 672.775 442.558, 673.169 430.870, 672.544 420.868 L 671.834 409.494 667.667 407.653 C 665.375 406.640, 662.038 405.173, 660.250 404.392 L 657 402.973 657 421.330 M 432.683 425.750 L 416.092 446.500 422.796 453.004 C 426.483 456.581, 433.775 463.302, 439 467.938 C 444.225 472.575, 449.063 477.047, 449.750 477.875 C 450.755 479.086, 451 472.081, 451 442.191 C 451 421.736, 450.612 405, 450.137 405 C 449.662 405, 441.808 414.337, 432.683 425.750 M 507 509.406 L 507 603 512.005 603 L 517.011 603 516.755 512.818 L 516.500 422.637 511.750 419.225 L 507 415.813 507 509.406 M 688.166 433.130 L 688.552 449.500 694.004 452.168 C 697.002 453.636, 699.691 454.692, 699.978 454.516 C 700.265 454.339, 700.366 447.236, 700.202 438.731 L 699.905 423.266 694.713 420.383 C 691.857 418.797, 689.129 417.334, 688.650 417.130 C 688.169 416.925, 687.952 424.062, 688.166 433.130 M 583 441.524 C 583 450.455, 583.295 453.105, 584.250 452.753 C 587.802 451.442, 596.449 448.924, 604.128 446.964 L 612.755 444.762 598.628 437.658 C 590.857 433.751, 584.163 430.392, 583.750 430.194 C 583.337 429.995, 583 435.094, 583 441.524 M 717 445.863 L 717 461.632 722.550 463.932 C 725.603 465.198, 728.358 465.975, 728.673 465.660 C 728.988 465.345, 728.924 458.655, 728.531 450.794 L 727.815 436.500 722.408 433.297 L 717 430.095 717 445.863 M 556 435.048 C 546.634 438.907, 543 439.784, 543 438.184 C 543 437.230, 535.749 433, 534.114 433 C 533.344 433, 533 437.722, 533 448.290 L 533 463.581 544.750 460.757 C 551.212 459.203, 558.750 457.382, 561.500 456.709 L 566.500 455.485 566.781 443.243 C 566.935 436.509, 566.710 431.030, 566.281 431.067 C 565.851 431.104, 561.225 432.895, 556 435.048 M 744 457.906 L 744 472.812 748.678 474.406 C 751.251 475.283, 753.726 476, 754.178 476 C 754.630 476, 755 469.708, 755 462.017 L 755 448.034 750.033 445.517 C 747.302 444.133, 744.827 443, 744.533 443 C 744.240 443, 744 449.708, 744 457.906 M 628.500 457.598 C 601.935 463.891, 593.084 466.071, 588.250 467.512 L 583 469.077 583 485.366 L 583 501.654 592.750 499.466 C 598.112 498.264, 610.938 495.774, 621.250 493.933 L 640 490.587 640.179 475.293 C 640.277 466.882, 640.389 459.025, 640.429 457.833 C 640.468 456.642, 640.050 455.568, 639.500 455.448 C 638.950 455.328, 634 456.296, 628.500 457.598 M 657.022 473.642 L 657.045 491.500 664.110 493.829 C 667.997 495.109, 671.361 495.972, 671.588 495.746 C 671.814 495.519, 672.295 487.841, 672.656 478.683 L 673.313 462.033 667.906 459.579 C 664.933 458.230, 661.263 456.824, 659.750 456.454 L 657 455.783 657.022 473.642 M 416 503.871 C 416 543.589, 416.048 543.863, 421.665 536.250 C 426.783 529.314, 437.318 516.561, 444.639 508.437 L 451.906 500.375 439.876 489.437 C 433.260 483.422, 425.181 476.079, 421.924 473.121 L 416 467.741 416 503.871 M 689 484.961 L 689 501.923 694.182 503.461 C 697.031 504.308, 699.731 505, 700.182 505 C 700.632 505, 701 497.808, 701 489.017 L 701 473.034 696.033 470.517 C 693.302 469.133, 690.602 468, 690.033 468 C 689.363 468, 689 473.957, 689 484.961 M 551.714 474.963 C 544.131 476.524, 536.819 478.080, 535.464 478.420 L 533 479.038 533 494.519 C 533 506.233, 533.304 510.002, 534.250 510.008 C 534.938 510.013, 542.587 508.577, 551.250 506.817 L 567 503.617 567 487.808 C 567 479.114, 566.663 472.028, 566.250 472.062 C 565.837 472.096, 559.296 473.402, 551.714 474.963 M 717.226 494.705 L 717.500 511.281 722 512.625 C 729.395 514.835, 729 515.623, 729 498.664 L 729 483.327 722.976 480.728 L 716.952 478.129 717.226 494.705 M 744.225 504.616 L 744.500 520.140 749.775 521.925 L 755.051 523.710 754.775 508.727 L 754.500 493.745 749.225 491.418 L 743.950 489.091 744.225 504.616 M 637 508.778 C 628.505 509.991, 586.220 517.113, 584.764 517.575 C 583.173 518.080, 583 519.746, 583 534.567 C 583 546.672, 583.316 551, 584.199 551 C 585.688 551, 633.343 545.177, 637.614 544.474 L 640.727 543.961 640.259 526.230 C 640.002 516.479, 639.726 508.482, 639.646 508.460 C 639.566 508.438, 638.375 508.581, 637 508.778 M 657 527.431 L 657 545.724 662.667 546.862 C 673.250 548.987, 672.552 549.758, 672.871 535.593 C 673.025 528.769, 672.844 521.144, 672.470 518.648 L 671.789 514.110 664.395 511.624 L 657 509.137 657 527.431 M 688.795 535.896 L 689.089 552.794 692.795 553.465 C 694.833 553.835, 697.524 554.383, 698.776 554.683 L 701.052 555.230 700.776 539.424 L 700.500 523.618 694.536 521.309 C 691.256 520.039, 688.556 518.999, 688.536 518.999 C 688.516 518.998, 688.633 526.602, 688.795 535.896 M 549 523.567 C 541.025 524.832, 534.163 525.897, 533.750 525.934 C 533.337 525.970, 533 532.750, 533 541 C 533 554.610, 533.162 556.002, 534.750 556.023 C 535.712 556.036, 543.362 555.277, 551.750 554.337 L 567 552.627 567.053 546.063 C 567.082 542.454, 567.352 536.881, 567.651 533.681 C 568.381 525.898, 567.418 520.960, 565.205 521.133 C 564.267 521.206, 556.975 522.301, 549 523.567 M 440.477 537.661 C 434.965 543.622, 427.540 551.875, 423.977 556 C 420.415 560.125, 417.124 563.775, 416.665 564.111 C 416.206 564.448, 423.631 572.040, 433.165 580.983 L 450.500 597.243 450.773 579.622 C 450.923 569.930, 450.923 554.085, 450.773 544.411 L 450.500 526.822 440.477 537.661 M 716.326 529.408 C 716.697 530.374, 717 537.353, 717 544.917 L 717 558.671 722.500 560.202 L 728 561.733 728 546.485 L 728 531.237 723.629 530.137 C 721.225 529.531, 718.446 528.725, 717.455 528.344 C 716.028 527.797, 715.793 528.019, 716.326 529.408 M 744.222 551.676 L 744.500 565.351 749.750 566.533 L 755 567.714 755.009 559.607 C 755.013 555.148, 755.293 549.207, 755.630 546.405 L 756.242 541.309 751.183 539.655 C 748.401 538.745, 745.634 538, 745.034 538 C 744.286 538, 744.031 542.300, 744.222 551.676 M 771.222 559.224 L 771.500 572.282 776 573.626 C 778.475 574.365, 780.612 574.976, 780.750 574.985 C 780.888 574.993, 781 569.236, 781 562.191 L 781 549.382 775.972 547.774 L 770.943 546.166 771.222 559.224 M 614.500 564.491 C 604.600 565.742, 593.462 567.080, 589.750 567.463 L 583 568.159 583 584.380 C 583 595.662, 583.365 600.965, 584.200 601.800 C 585.074 602.674, 592.769 603, 612.561 603 L 639.721 603 640.352 597.750 C 640.699 594.862, 640.987 585.638, 640.991 577.250 L 641 562 636.750 562.107 C 634.413 562.166, 624.400 563.239, 614.500 564.491 M 657 582.542 L 657 603.084 664.750 602.792 C 672.484 602.501, 672.500 602.494, 672.438 599.750 C 672.403 598.237, 672.291 590.043, 672.188 581.540 L 672 566.080 665.395 564.040 C 661.762 562.918, 658.387 562, 657.895 562 C 657.397 562, 657 571.126, 657 582.542 M 689 585.983 L 689 603.100 694.750 602.800 L 700.500 602.500 700.834 587.433 L 701.167 572.367 696.834 571.120 C 694.450 570.434, 691.712 569.646, 690.750 569.369 C 689.132 568.903, 689 570.155, 689 585.983 M 547.250 571.789 L 533 573.314 533 588.157 L 533 603 550 603 L 567 603 567 586.500 L 567 570 564.250 570.132 C 562.737 570.204, 555.087 570.950, 547.250 571.789 M 716.721 578.392 C 716.450 580.101, 716.154 586.360, 716.065 592.299 L 715.902 603.098 722.201 602.799 L 728.500 602.500 728.500 590.637 L 728.500 578.775 722.858 577.029 L 717.216 575.283 716.721 578.392 M 744 592.061 L 744 603 749.538 603 L 755.075 603 754.788 593.843 L 754.500 584.686 749.250 582.904 L 744 581.122 744 592.061 M 416 594.331 L 416 602 420.250 602.155 C 422.587 602.240, 426.477 602.440, 428.894 602.599 C 431.311 602.758, 432.886 602.553, 432.394 602.144 C 431.902 601.735, 428.012 598.084, 423.750 594.031 L 416 586.662 416 594.331 M 771 595.643 L 771 602.500 775.500 602.500 L 780 602.500 780 596.875 C 780 591.540, 779.858 591.221, 777.250 590.695 C 775.737 590.390, 773.712 589.835, 772.750 589.463 C 771.188 588.859, 771 589.521, 771 595.643" stroke="none" fill="#f2f0ea" fill-rule="evenodd"/></svg>